# xmcd CD database file
#
# Track frame offsets:
#	150
#	16475
#	28175
#	44800
#	58112
#	76312
#	91987
#	102887
#	116025
#	129575
#	141287
#	158812
#	173750
#	194325
#	206837
#	218212
#
# Disc length: 3077 seconds
#
# Revision: 0
# Processed by: cddbd v1.5.1PL0 Copyright (c) Steve Scherf et al.
# Submitted via: CDex 1.51
#
DISCID=eb0c0310
DTITLE=Various Artist - The Best of Aussie Country
DYEAR=1900
DGENRE=Country
TTITLE0=WASH MY FACE IN THE MORNING DEW
TTITLE1=SIX DAYS ON THE ROAD
TTITLE2=MARRIAGE ON THE ROCKS
TTITLE3=GOOD HEARTED WOMAN
TTITLE4=WATCHING THE WORLD GO BY
TTITLE5=SONG and DANCE MAN
TTITLE6=SNEAKY SNAKE
TTITLE7=MAMAS DON'T LET YOUR BABIES GROW UP TO BE COWBOYS
TTITLE8=MAMA SAY A PRAYER
TTITLE9=WHERE THE OLD RED RIVER FLOWS
TTITLE10=THE UNION MARE and THE CONFEDERATE GREY
TTITLE11=ORANGE BLOSSOM SPECIAL
TTITLE12=SUVLA BAY
TTITLE13=TRUCKIES
TTITLE14=OX DRIVERS SONG
TTITLE15=SHE CALLED ME BABY
EXTD=
EXTT0=
EXTT1=
EXTT2=
EXTT3=
EXTT4=
EXTT5=
EXTT6=
EXTT7=
EXTT8=
EXTT9=
EXTT10=
EXTT11=
EXTT12=
EXTT13=
EXTT14=
EXTT15=
PLAYORDER=
